PathFileType	4	(X/Y/Z)	../Python\walking\Walking16\task.trc
DataRate	CameraRate	NumFrames	NumMarkers	Units	OrigDataRate	OrigDataStartFrame	OrigNumFrames
200.000000	200.000000	5	30	mm	200.000000	105	452
Frame#	Time	C7			RBAK			CLAV			STRN			RASI			LASI			PE01			RTH1			RTH2			RTH3			RD5M			RTOE			LTH2			LTH3			LTB2			LTB3			LHEE			LTOE			LD5M			LTB1			RTB2			RHEE			RTB3			RTB1			LTH1			LPSI			PE03			PE02			RPSI			T10			
		X1	Y1	Z1	X2	Y2	Z2	X3	Y3	Z3	X4	Y4	Z4	X5	Y5	Z5	X6	Y6	Z6	X7	Y7	Z7	X8	Y8	Z8	X9	Y9	Z9	X10	Y10	Z10	X11	Y11	Z11	X12	Y12	Z12	X13	Y13	Z13	X14	Y14	Z14	X15	Y15	Z15	X16	Y16	Z16	X17	Y17	Z17	X18	Y18	Z18	X19	Y19	Z19	X20	Y20	Z20	X21	Y21	Z21	X22	Y22	Z22	X23	Y23	Z23	X24	Y24	Z24	X25	Y25	Z25	X26	Y26	Z26	X27	Y27	Z27	X28	Y28	Z28	X29	Y29	Z29	X30	Y30	Z30	

106	0.665	-618.799987792969	1311.80517578125	147.627670288086	-647.3481445312502	1223.109985351563	274.293426513672	-500.0237426757815	1211.608642578125	132.522201538086	-439.5602722167971	1027.995727539063	146.7334136962891	-471.2899475097659	835.5394897460942	302.0495605468751	-454.7250061035159	842.6752319335942	72.82035827636722	-654.7529296875002	913.8947753906255	182.0727691650391	-623.8623046875002	563.982360839844	319.9344787597657	-632.1897583007815	486.6762695312502	300.4375915527345	-588.2830810546877	529.6667480468752	307.1397094726564	-827.7741088867192	19.21597862243653	269.2839965820314	-788.5307006835942	27.38405227661134	216.6632690429689	-423.3035278320315	531.432556152344	53.23312759399417	-373.0017089843751	589.9973144531252	42.08338546752931	-323.3858337402345	199.6767425537111	74.56291198730472	-293.3496093750001	237.8563842773439	78.21872711181643	-313.3331604003907	27.3140277862549	129.634750366211	-126.2321090698243	53.83806228637698	135.0475006103516	-160.7860260009766	31.12831878662111	89.0754089355469	-339.216522216797	276.6278686523439	63.88925552368167	-792.3029785156255	269.2137145996095	289.9838867187501	-957.708862304688	98.94812774658209	208.6014404296876	-785.3627929687505	221.0415039062501	274.0919189453126	-733.237976074219	280.9666442871095	281.4501953125001	-422.3819274902346	589.9089965820315	35.8143997192383	-660.599304199219	873.8369750976567	143.7309722900391	-670.430603027344	856.5310668945317	150.6170654296876	-677.8658447265627	854.3410034179692	200.7158813476564	-664.9564208984377	880.9775390625005	228.2857055664064	-647.227233886719	1013.852844238282	187.262924194336	
107	0.67	-611.729187011719	1311.992065429688	146.8540802001954	-640.3433837890627	1223.496948242188	273.6244506835939	-492.7665710449221	1211.988037109375	132.0025634765626	-432.0157165527346	1028.4931640625	146.4624023437501	-463.6230163574221	835.361450195313	301.4448547363282	-447.3470153808596	843.5952758789067	72.31046295166018	-647.3082275390627	914.175415039063	182.5594024658204	-615.6954345703127	563.5942382812502	319.484344482422	-623.864196777344	486.2737426757815	300.153289794922	-580.035095214844	529.3706665039065	306.7912902832032	-827.155395507813	19.93969917297364	269.1462402343751	-788.4243164062505	27.182918548584	216.7201538085939	-414.264099121094	532.9483032226565	52.3592224121094	-364.2921447753907	592.0979614257815	43.19624710083009	-318.6817321777345	200.4281311035157	74.26725769042972	-288.2317810058595	237.9585571289064	78.43909454345706	-312.7075805664064	28.11902618408205	129.4987792968751	-124.7301254272462	50.22175216674808	135.3917388916016	-160.1060333251954	28.41689109802248	89.11755371093753	-333.023651123047	277.6674194335939	63.52438735961917	-786.4445800781255	271.0286560058595	289.6617431640626	-954.0712890625005	104.0273590087891	207.9948883056642	-780.1718750000005	222.6331481933595	273.9771423339845	-727.0699462890627	281.713592529297	281.4114074707032	-413.2592468261721	591.629577636719	35.59378051757814	-653.1497192382815	874.3912963867192	143.8343353271485	-662.8076171875002	856.9989624023442	150.7351074218751	-670.0578613281252	854.3830566406255	200.8494110107423	-657.1638793945315	880.991821289063	228.5986633300782	-639.710388183594	1014.12646484375	187.3086090087891	
108	0.675	-604.652038574219	1312.283813476563	146.0904846191407	-633.3533935546877	1223.981811523438	272.9519653320314	-485.5081176757815	1212.479125976563	131.5051269531251	-424.4797363281252	1029.101806640625	146.2009277343751	-455.966491699219	835.2866210937505	300.7928466796876	-439.9870300292971	844.6159667968755	71.76987457275393	-639.900085449219	914.5314331054692	183.0412902832032	-607.2964477539065	563.210632324219	319.0651245117189	-615.187927246094	485.869323730469	299.9310607910157	-571.506286621094	529.1289672851565	306.4884033203126	-826.4533691406255	20.74593162536622	268.9718322753907	-788.3110961914067	26.97471809387208	216.7630310058595	-405.3809814453127	534.4778442382815	51.46375656127933	-355.7347717285157	594.2033691406252	44.18089675903322	-314.130828857422	201.1673278808595	73.85620117187503	-283.304901123047	238.0735015869142	78.60443115234378	-312.1086425781251	28.92197799682619	129.3491668701172	-123.390724182129	46.93611145019533	135.6207275390626	-159.5201110839844	25.99134635925294	89.02423095703128	-327.0033569335939	278.658660888672	63.01409912109378	-780.2322387695317	272.9213867187501	289.305877685547	-949.8923950195317	109.3172760009766	207.1748352050782	-774.6151733398442	224.3071594238282	273.8646850585939	-720.548278808594	282.5191040039064	281.4043884277345	-404.2972717285159	593.3565063476565	35.31900787353517	-645.7220458984377	875.030395507813	143.9235534667969	-655.1978759765627	857.5311889648442	150.8714294433594	-662.248229980469	854.4974975585942	200.9989471435548	-649.3786621093752	881.0818481445317	228.9140014648439	-632.2081298828127	1014.501770019532	187.3238372802735	
109	0.68	-597.571472167969	1312.677856445313	145.3391571044922	-626.3823242187502	1224.5595703125	272.2767333984376	-478.2514343261721	1213.078002929688	131.0327453613282	-416.9560546875002	1029.817016601563	145.9519805908204	-448.3293457031252	835.3150024414067	300.0982360839845	-432.6465148925784	845.726928710938	71.20252990722659	-632.5323486328127	914.960327148438	183.5074768066407	-598.6645507812502	562.8235473632815	318.6862182617189	-606.1495361328127	485.450622558594	299.7858886718751	-562.692810058594	528.9344482421877	306.2419433593751	-825.6627807617192	21.64412689208985	268.7454528808595	-788.1757202148442	26.77697372436525	216.7827911376954	-396.6923828125002	535.9942016601565	50.55814361572268	-347.3410034179689	596.261169433594	45.00280380249025	-309.7630004882814	201.863494873047	73.35951995849612	-278.5906982421876	238.1802062988282	78.7206726074219	-311.5321350097657	29.69869041442873	129.1937561035157	-122.1990051269532	43.98484039306642	135.7608032226563	-159.0091094970704	23.85511207580567	88.81668090820315	-321.2027282714845	279.5691223144532	62.38967514038089	-773.647827148438	274.8784179687501	288.919647216797	-945.1238403320317	114.8005676269532	206.1364288330079	-768.6718139648442	226.0510406494142	273.7617492675782	-713.6575927734377	283.3756408691407	281.4384155273439	-395.5280761718752	595.0588378906252	34.99164962768556	-638.3193969726565	875.749877929688	143.9906616210938	-647.6057128906252	858.124389648438	151.0170440673829	-654.4458618164065	854.6842651367192	201.1544342041017	-641.6096801757815	881.2474975585942	229.2204895019532	-624.7249755859377	1014.975036621094	187.3030242919922	
110	0.6850000000000001	-590.490173339844	1313.17138671875	144.6022491455079	-619.4345703125002	1225.224609375	271.5994262695314	-470.9994812011721	1213.780395507813	130.5882110595704	-409.4484558105471	1030.633422851563	145.7185516357422	-440.720397949219	835.445922851563	299.3659973144532	-425.3274230957034	846.9170532226567	70.61243438720706	-625.2086181640627	915.4594726562505	183.9472656250001	-589.8023681640627	562.4259033203127	318.3559570312501	-596.7446899414065	485.0063476562502	299.7308044433595	-553.5957031250002	528.7796630859377	306.0613403320314	-824.7764282226567	22.64802932739259	268.4495544433595	-787.998413085938	26.61193466186525	216.7689208984376	-388.239685058594	537.4719238281252	49.65382385253909	-339.1250000000001	598.2171630859377	45.63845062255861	-305.6077270507814	202.4928588867189	72.81069183349612	-274.1094360351564	238.2613983154298	78.7934494018555	-310.9785156250001	30.42895698547365	129.0403442382813	-121.1412506103516	41.36660385131837	135.8389739990235	-158.5585174560547	22.00600051879884	88.51829528808597	-315.6672363281251	280.3751525878907	61.68908691406253	-766.6748657226565	276.884246826172	288.5077209472657	-939.722045898438	120.4574050903321	204.8835754394532	-762.322937011719	227.8504943847657	273.6757812500001	-706.384704589844	284.2748107910157	281.5225219726564	-386.9827575683596	596.7070922851565	34.61435317993165	-630.944763183594	876.5454711914067	144.0279235839844	-640.035827636719	858.7751464843755	151.1627349853516	-646.6599121093752	854.9428100585942	201.3056640625001	-633.8660888671877	881.4883422851567	229.5069122314454	-617.2655029296877	1015.542236328125	187.2409210205079	
